<svg width="34" height="28" viewBox="0 0 34 28" fill="none" xmlns="http://www.w3.org/2000/svg">
<path d="M33.6852 3.68529C32.4604 4.21364 31.1275 4.59388 29.7546 4.74198C31.18 3.89517 32.2474 2.55736 32.7566 0.979538C31.419 1.77521 29.9538 2.33315 28.4258 2.62861C27.7871 1.94587 27.0147 1.40197 26.1567 1.0308C25.2987 0.65963 24.3734 0.469143 23.4385 0.471208C19.6561 0.471208 16.6141 3.5372 16.6141 7.29964C16.6141 7.82798 16.6782 8.35632 16.7822 8.86465C11.1185 8.56846 6.06727 5.86271 2.70909 1.72002C2.09719 2.76516 1.77654 3.95517 1.78049 5.16625C1.78049 7.53579 2.98527 9.62515 4.82246 10.8539C3.73978 10.8113 2.68244 10.5137 1.73646 9.98538V10.0694C1.73646 13.3876 4.08198 16.1374 7.20801 16.7698C6.62106 16.9222 6.01726 17.0002 5.41084 17.0019C4.96655 17.0019 4.54628 16.9579 4.12201 16.8979C4.98657 19.6036 7.5042 21.5689 10.5021 21.6329C8.15662 23.4701 5.21872 24.5508 2.02865 24.5508C1.45628 24.5508 0.927933 24.5308 0.379578 24.4668C3.40554 26.408 6.99587 27.5288 10.8624 27.5288C23.4145 27.5288 30.283 17.13 30.283 8.10416C30.283 7.80797 30.283 7.51178 30.263 7.21558C31.5918 6.24295 32.7566 5.03817 33.6852 3.68529Z" fill="white"/>
</svg>
