<svg width="49" height="47" viewBox="0 0 49 47" fill="none" xmlns="http://www.w3.org/2000/svg">
<path d="M47.6379 4.76792L44.2321 1.36209C43.2917 0.37084 41.6396 0.37084 40.6483 1.36209L17.875 24.1354L24.8646 31.125L47.6379 8.35167C48.6291 7.36042 48.6291 5.70834 47.6379 4.76792ZM12.7916 28.5833C10.7694 28.5833 8.82992 29.3867 7.39996 30.8167C5.96999 32.2466 5.16665 34.1861 5.16665 36.2083C5.16665 39.5379 2.21831 41.2917 0.083313 41.2917C2.42165 44.3925 6.43748 46.375 10.25 46.375C12.9463 46.375 15.5323 45.3039 17.4389 43.3973C19.3455 41.4906 20.4166 38.9047 20.4166 36.2083C20.4166 34.1861 19.6133 32.2466 18.1833 30.8167C16.7534 29.3867 14.8139 28.5833 12.7916 28.5833Z" fill="#2091F9"/>
</svg>
